# xmcd CD database file
#
# Track frame offsets:
#	150
#	26958
#	44088
#	59988
#	76713
#	94338
#	115338
#	131988
#	148638
#	173988
#	191763
#	212763
#	230313
#
# Disc length: 3291 seconds
#
# Revision: 0
# Processed by: cddbd v1.5.2PL0 Copyright (c) Steve Scherf et al.
# Submitted via: CDex 1.51
#
DISCID=cb0cd90d
DTITLE=Natacha Roth and James Scholfield - Everything I Love
DYEAR=2006
DGENRE=Jazz
TTITLE0=Yise Wabanta'a Bami
TTITLE1=The very thought of you
TTITLE2=Falsa Baiana
TTITLE3=Este Seu Olhar
TTITLE4=Madalena
TTITLE5=Ntyilo Ntyilo
TTITLE6=Desafinado
TTITLE7=Eu Sei Que Vote Amar
TTITLE8=Malaika
TTITLE9=Coisa Mais Linda
TTITLE10=East Of The Sun
TTITLE11=Everything I Love
TTITLE12=We'll Be Together Again
EXTD=YEAR: 2006
EXTT0=
EXTT1=
EXTT2=
EXTT3=
EXTT4=
EXTT5=
EXTT6=
EXTT7=
EXTT8=
EXTT9=
EXTT10=
EXTT11=
EXTT12=
PLAYORDER=
